<svg width="1629" height="235" viewBox="0 0 1629 235" fill="none" xmlns="http://www.w3.org/2000/svg">
<path d="M1437.39 205.794C1439.47 195.599 1441.46 185.838 1443.47 176.076C1452.7 131.127 1461.95 86.1781 1471.18 41.2225C1473.43 30.2564 1475.74 19.3036 1477.86 8.31093C1478.36 5.7158 1479.49 4.81083 1482.07 4.81748C1514.45 4.87072 1546.83 4.87737 1579.22 4.81748C1581.82 4.81748 1582.94 5.76903 1583.46 8.29762C1594.07 59.6413 1604.74 110.978 1615.41 162.315C1619.76 183.263 1624.14 204.203 1628.49 225.151C1629.48 229.888 1629.44 229.962 1624.51 229.962C1602.1 229.962 1579.71 229.915 1557.3 230.015C1554.17 230.028 1552.79 229.25 1552.46 225.856C1551.43 215.269 1549.94 204.736 1548.82 194.155C1548.54 191.5 1547.62 190.542 1544.94 190.576C1534.62 190.689 1524.31 190.715 1514 190.562C1511.11 190.516 1510.02 191.634 1509.76 194.315C1508.87 203.578 1507.87 212.834 1506.95 222.096C1505.98 231.898 1506.44 229.942 1498.58 229.955C1456.1 230.021 1413.62 229.928 1371.15 230.041C1367.72 230.048 1366.02 228.904 1364.66 225.836C1355.54 205.261 1346.26 184.76 1337.01 164.238C1336.57 163.26 1336.45 161.736 1335.3 161.583C1334.08 161.417 1333.73 162.947 1333.11 163.812C1330.58 167.319 1328.2 170.939 1325.58 174.373C1323.86 176.622 1323.29 178.991 1323.31 181.785C1323.41 196.205 1323.36 210.618 1323.35 225.038C1323.35 229.982 1323.34 230.002 1318.35 230.002C1247.6 230.002 1176.84 229.988 1106.08 229.982C1080.02 229.982 1053.96 229.982 1027.89 229.982C1023.36 229.982 1023.38 229.875 1022.87 225.417C1021.65 214.737 1020.27 204.077 1019.08 193.397C1018.83 191.221 1017.81 190.622 1015.83 190.629C1005.18 190.669 994.537 190.702 983.89 190.609C981.488 190.589 980.55 191.507 980.317 193.829C979.372 203.312 978.307 212.781 977.296 222.249C977.222 222.908 977.223 223.58 977.163 224.239C976.834 228.067 974.721 229.984 970.821 229.988C933.112 229.988 895.409 229.988 857.7 229.982C854.284 229.982 852.574 228.26 852.57 224.818C852.537 188.885 852.723 152.953 852.37 117.02C852.237 103.725 852.171 90.4168 851.552 77.0885C850.434 87.5821 849.336 98.0758 848.198 108.563C846.321 125.857 844.438 143.151 842.522 160.439C840.413 179.49 838.263 198.541 836.121 217.591C835.761 220.785 835.282 223.966 834.956 227.16C834.77 229.003 834.011 229.982 832.042 229.982C818.401 229.955 804.76 229.955 791.118 229.975C788.976 229.975 788.27 228.824 788.071 226.881C786.787 214.205 785.436 201.535 784.118 188.865C782.461 172.882 780.884 156.899 779.168 140.922C776.799 118.777 774.337 96.6451 771.608 74.5133C771.608 85.0602 771.662 95.6137 771.595 106.161C771.369 142.532 771.103 178.897 770.823 215.269C770.79 219.142 770.451 223.021 770.444 226.894C770.444 229.236 769.386 230.101 767.197 229.982C766.531 229.948 765.866 229.988 765.2 229.988C726.387 229.988 687.566 229.995 648.752 229.988C644.048 229.988 643.981 229.982 643.422 225.45C642.125 214.89 640.821 204.33 639.723 193.756C639.463 191.268 638.465 190.595 636.163 190.615C625.962 190.689 615.754 190.802 605.553 190.562C601.993 190.476 600.962 191.913 600.656 195.1C599.658 205.468 598.38 215.808 597.435 226.182C597.182 228.97 596.297 230.041 593.423 230.035C571.351 229.955 549.286 229.948 527.214 230.035C524.046 230.048 523.434 228.917 524.066 226.036C526.222 216.194 528.212 206.319 530.042 196.325C527.46 199.273 525.424 202.6 522.822 205.488C509.015 220.812 491.181 228.331 471.372 231.692C448.415 235.591 425.611 234.852 403.36 227.453C387.489 222.176 374.201 213.1 364.439 199.266C364.2 198.92 363.887 198.62 362.949 197.529C364.113 203.252 365.071 208.056 366.07 212.854C367.014 217.412 367.939 221.977 368.997 226.508C369.57 228.95 368.931 230.008 366.289 230.002C342.886 229.955 319.49 229.948 296.088 229.988C293.825 229.988 293.02 229.023 292.78 226.854C291.576 215.948 290.139 205.075 289.027 194.162C288.748 191.401 287.697 190.589 285.095 190.609C274.561 190.695 264.021 190.682 253.487 190.609C251.172 190.595 250.207 191.281 249.974 193.783C248.983 204.709 247.698 215.602 246.634 226.521C246.394 228.997 245.429 230.008 242.887 230.002C220.596 229.942 198.304 229.935 176.013 230.002C173.092 230.008 172.712 228.751 173.258 226.269C174.955 218.47 176.525 210.645 178.142 202.833C178.322 201.981 178.655 201.122 178.002 199.865C176.399 201.821 174.962 203.704 173.384 205.474C159.304 221.285 141.278 229.509 120.657 232.484C103.229 234.999 85.9419 234.586 69.027 229.057C46.3629 221.657 29.5012 207.124 17.6102 186.709C2.90445 161.397 -0.728732 133.716 1.09451 105.109C2.6649 80.5886 9.79818 57.8579 25.0229 38.1483C41.0262 17.4405 62.313 5.86219 88.0314 2.15581C106.038 -0.439317 123.731 1.07118 140.679 7.76528C166.617 18.0127 183.991 36.4381 191.856 63.4075C193.972 70.6539 195.164 78.0999 195.456 85.6791C195.556 88.3141 194.811 89.5318 191.956 89.5185C169.884 89.452 147.819 89.4586 125.747 89.5119C123.272 89.5119 122.201 88.6202 121.914 86.1049C121.242 80.2226 119.838 74.5267 116.465 69.5161C108.839 58.1773 93.2482 58.4568 85.9087 69.9952C80.9447 77.7939 79.0349 86.5374 78.0434 95.5073C76.1536 112.662 76.2069 129.81 79.0482 146.871C79.9465 152.241 81.4836 157.444 83.9923 162.329C91.2653 176.482 107.062 177.733 116.531 164.877C120.244 159.84 122.187 154.071 123.066 147.982C123.472 145.154 124.669 144.362 127.404 144.376C146.921 144.469 166.444 144.342 185.961 144.495C189.155 144.522 190.373 143.53 190.998 140.43C197.932 105.981 204.992 71.5589 212.032 37.1368C214.008 27.4683 216.071 17.8197 217.994 8.14457C218.46 5.78899 219.505 4.80418 222 4.80418C254.492 4.86406 286.991 4.87072 319.484 4.79752C322.445 4.79087 323.23 6.32798 323.729 8.7501C327.954 29.2716 332.246 49.7798 336.498 70.2946C341.609 94.9284 346.766 119.555 351.736 144.223C352.408 147.563 353.679 148.714 357.16 148.687C377.122 148.521 397.085 148.654 417.047 148.554C420.228 148.541 422.078 149.1 421.938 152.846C421.858 155.009 422.524 157.231 423.029 159.387C424.646 166.261 428.925 170.693 435.719 172.536C442.406 174.353 449.134 174.459 455.635 171.811C459.594 170.2 462.808 167.545 463.167 162.901C463.527 158.269 461.198 154.809 457.451 152.321C452.946 149.326 447.803 147.916 442.599 146.698C426.523 142.945 410.293 139.844 394.636 134.361C370.461 125.897 355.609 106.107 354.025 80.4821C353.36 69.6957 353.986 59.2021 357.892 49.0877C365.125 30.3695 378.999 17.9262 397.018 10.4136C428.952 -2.90802 461.437 -2.54204 493.164 10.6732C520.114 21.8988 536.144 42.3404 538.859 72.1311C539.267 76.5983 537.211 78.8319 532.69 78.8319C512.614 78.8319 492.545 78.772 472.47 78.8984C469.143 78.9184 467.559 78.2064 467.087 74.5C466.454 69.5826 463.154 66.0559 458.722 63.9931C451.616 60.6926 444.183 60.2468 436.69 62.5891C432.937 63.7602 430.143 66.2222 429.883 70.3412C429.644 74.1607 431.633 77.0286 434.867 79.1447C441.488 83.4898 449.193 84.4214 456.626 85.9519C470.853 88.893 485.199 91.4283 498.787 96.6917C518.404 104.297 531.798 117.865 536.989 138.686C537.967 142.612 538.439 146.671 539.551 150.757C540.722 145.181 541.906 139.611 543.057 134.035C550.557 97.5568 558.049 61.0719 565.535 24.587C566.606 19.3768 567.784 14.1799 568.609 8.92977C569.095 5.81561 570.386 4.73098 573.613 4.7709C587.254 4.94391 600.895 4.8441 614.536 4.8441C632.616 4.8441 650.689 4.8441 668.768 4.8441C673.679 4.8441 673.666 4.85741 674.63 9.50202C686.894 68.4314 699.158 127.361 711.421 186.297C711.98 188.992 712.519 191.693 713.238 195.267C714.502 186.643 714.263 178.831 714.642 171.065C715.447 154.57 715.614 138.047 716.359 121.552C717.39 98.7412 718.282 75.9307 719.014 53.1135C719.48 38.3812 720.318 23.6621 720.777 8.93642C720.877 5.70914 722.008 4.79087 725.109 4.80418C750.062 4.89733 775.015 4.89068 799.969 4.80418C802.963 4.79087 804.254 5.54944 804.507 8.81664C805.851 26.2706 807.361 43.7112 808.965 61.1451C810.941 82.6581 812.372 104.211 813.743 126.343C814.987 118.012 814.787 110.166 815.227 102.361C816.371 81.8862 818.114 61.4645 819.758 41.0362C820.583 30.7621 821.288 20.4814 822 10.2007C822.353 5.03707 822.48 4.85075 827.683 4.85075C851.306 4.85075 874.928 4.85075 898.55 4.85075C903.72 4.85075 903.807 5.01711 903.993 10.3072C904.932 37.2233 905.87 64.1395 906.875 91.049C907.706 113.42 908.598 135.785 909.51 158.156C909.929 168.45 910.448 178.744 911.206 189.112C913.376 178.638 915.558 168.171 917.708 157.691C926.977 112.515 936.233 67.3401 945.489 22.1649C946.334 18.0393 947.112 13.9004 947.971 9.77485C948.996 4.86406 949.022 4.85741 953.933 4.85741C974.78 4.85741 995.635 4.85075 1016.48 4.85075C1027.02 4.85075 1037.56 4.85075 1048.09 4.85075C1053.18 4.85075 1053.21 4.85075 1054.21 9.695C1060.29 39 1066.34 68.3183 1072.42 97.6233C1080.05 134.421 1087.7 171.205 1095.35 208.003C1095.46 208.542 1095.62 209.067 1096.15 209.6V205.967C1096.15 140.756 1096.15 75.5447 1096.15 10.3338C1096.15 6.68731 1097.99 4.86184 1101.66 4.85741C1122.51 4.85741 1143.36 4.85741 1164.21 4.85741C1168.62 4.85741 1170.82 7.01114 1170.82 11.3186C1170.82 62.4427 1170.82 113.573 1170.82 164.697C1170.82 168.118 1172.52 169.834 1175.91 169.848C1198.75 169.848 1221.6 169.848 1244.45 169.848C1247.55 169.848 1249.1 168.233 1249.11 165.004C1249.11 113.321 1249.11 61.6442 1249.11 9.96116C1249.11 6.5631 1250.83 4.85963 1254.28 4.85075C1275.79 4.85075 1297.31 4.8441 1318.82 4.85075C1323.23 4.85075 1323.17 4.97718 1323.38 9.27578C1324.44 30.5692 1321.16 51.5032 1318.34 72.4838C1317.66 77.5144 1317.1 82.5516 1316.48 87.6487C1318.07 87.8017 1318.14 86.6772 1318.52 86.0251C1328.72 68.5046 1338.78 50.891 1349.14 33.4637C1354.47 24.5138 1360.36 15.9033 1365.9 7.08656C1366.92 5.46959 1368.16 4.85075 1369.99 4.85741C1393.83 4.87737 1417.68 4.86406 1441.52 4.87737C1442.48 4.87737 1443.77 4.59124 1444.16 5.73576C1444.57 6.92686 1443.36 7.71205 1442.75 8.57709C1423.13 36.3916 1403.52 64.206 1383.82 91.9672C1382.5 93.8371 1382.32 95.2611 1383.35 97.3505C1400.57 132.238 1417.72 167.173 1434.9 202.087C1435.48 203.258 1435.89 204.543 1437.39 205.8L1437.39 205.794ZM269.444 63.7735C268.912 64.8249 268.692 65.0777 268.646 65.3638C264.82 87.1629 261.027 108.962 257.154 130.748C256.775 132.864 257.693 133.25 259.443 133.236C265.751 133.21 272.066 133.157 278.374 133.27C280.903 133.316 281.621 132.584 281.129 129.963C279.139 119.303 277.376 108.603 275.499 97.9227C273.55 86.8169 271.56 75.7178 269.438 63.7735H269.444ZM999.72 63.6537C999.554 63.6537 999.394 63.6404 999.228 63.6404C995.329 85.7522 991.456 107.871 987.503 129.969C987.031 132.624 988.056 133.296 990.464 133.263C996.44 133.177 1002.42 133.157 1008.39 133.27C1011.15 133.323 1011.84 132.285 1011.34 129.65C1009.97 122.477 1008.81 115.27 1007.55 108.077C1004.94 93.2648 1002.32 78.4593 999.714 63.6471L999.72 63.6537ZM620.219 63.5938C620.066 63.5872 619.913 63.5805 619.76 63.5739C619.274 66.2755 618.789 68.9704 618.309 71.672C614.949 90.856 611.582 110.033 608.228 129.217C607.596 132.857 607.916 133.23 611.682 133.243C617.551 133.27 623.42 133.197 629.282 133.27C631.611 133.296 632.443 132.584 631.944 130.109C630.806 124.473 629.921 118.784 628.929 113.114C626.028 96.6119 623.12 80.1029 620.213 63.6005L620.219 63.5938ZM1529.39 64.0796C1529.15 64.1195 1528.91 64.1528 1528.66 64.1927C1528.4 65.8163 1528.16 67.4466 1527.87 69.0636C1524.32 89.1126 1520.8 109.168 1517.19 129.211C1516.69 131.985 1517.12 133.376 1520.35 133.283C1526.21 133.11 1532.09 133.163 1537.95 133.27C1540.61 133.316 1541.42 132.518 1540.91 129.743C1538.35 115.816 1535.97 101.849 1533.54 87.8949C1532.15 79.9565 1530.77 72.018 1529.39 64.0796Z" fill="black"/>
</svg>
