<svg width="710" height="303" viewBox="0 0 710 303" fill="none" xmlns="http://www.w3.org/2000/svg">
<path d="M158.269 284.609C158.269 292.9 164.073 302.435 184.801 302.435C232.06 302.435 254.861 270.099 266.883 246.884C267.712 241.495 263.567 237.349 259.006 237.764C249.057 249.371 225.013 274.659 215.892 274.659C210.089 274.659 211.332 267.197 215.478 255.59L283.465 58.6749C288.32 44.3799 292.474 33.068 296.495 22.1134C298.655 16.2307 300.777 10.4511 302.95 4.36778C302.95 1.88042 301.706 0.636635 298.804 0.222107C278.076 1.05136 235.791 8.92798 222.526 14.317C219.209 17.2189 219.209 20.9501 220.453 24.2665L232.06 30.8993C239.522 35.045 239.937 39.6052 234.962 54.5292L164.073 259.735C159.927 271.343 158.269 278.39 158.269 284.609Z" fill="black"/>
<path fill-rule="evenodd" clip-rule="evenodd" d="M448.622 185.529C448.622 155.681 432.04 125.004 387.682 125.004C369.027 125.004 347.055 130.393 323.011 151.121C295.235 175.165 279.897 212.89 279.482 244.811C279.067 273.83 297.308 302.435 339.593 302.435C363.637 302.435 388.511 294.144 410.068 273.416C434.112 250.201 448.622 215.378 448.622 185.529ZM368.198 158.998C376.904 148.219 383.951 143.245 390.584 143.245C399.704 143.245 402.192 151.95 402.192 160.656C402.192 192.162 381.878 237.764 370.685 256.419C359.492 274.659 350.371 284.194 340.007 284.194C332.131 284.194 327.156 277.561 327.156 267.197C327.156 227.4 353.274 177.653 368.198 158.998Z" fill="black"/>
<path d="M535.572 145.732C535.572 136.612 528.939 125.004 515.673 125.004C492.091 125.004 492.445 137.721 478.363 173.507L453.075 240.666C445.613 260.564 443.54 269.685 443.54 277.976C443.54 285.852 450.587 302.435 468.414 302.435C491.214 302.435 516.088 284.609 532.67 269.685C537.451 265.169 543.764 258.271 548.664 252.916L548.679 252.899C551.42 249.904 553.718 247.393 555.056 246.055H556.3C555.987 247.045 555.635 248.134 555.258 249.298L555.237 249.365C552.619 257.455 548.838 269.142 548.838 276.732C548.838 291.656 562.104 302.435 574.54 302.435C591.537 302.435 628.433 287.925 659.939 254.346C693.933 218.279 709.271 183.871 709.686 156.096C709.686 142.001 705.955 125.004 685.642 125.004C671.547 125.004 660.768 133.71 659.524 148.634C661.597 156.925 661.597 163.558 661.597 170.605C661.597 186.359 655.794 214.134 644.186 235.276C632.993 255.59 616.41 269.685 606.461 269.685C598.17 269.685 595.268 263.052 595.268 252.688C595.268 230.302 608.119 197.966 618.898 177.653C627.189 162.314 631.335 152.779 631.335 143.245C631.335 131.222 620.142 125.004 609.778 125.004C596.097 125.004 580.759 128.32 573.296 161.07C565.834 195.064 555.056 223.254 523.549 256.419C514.015 266.368 506.138 271.343 500.749 271.343C497.847 271.343 496.189 268.856 496.189 265.539C496.603 261.393 498.262 254.346 506.138 233.204L528.939 171.849C532.67 161.9 535.572 151.95 535.572 145.732Z" fill="black"/>
<path d="M95.3168 152.365H142.162C149.209 149.048 151.697 136.612 148.795 130.808H101.535C108.997 103.447 116.874 75.2572 128.896 49.1399C138.016 28.4122 146.308 18.4627 151.697 18.4627C157.086 18.4627 166.206 26.3393 173.254 52.8711C175.326 59.9185 178.643 64.8932 185.276 64.8932C193.567 64.8932 211.393 54.5292 211.807 34.216C211.807 15.1463 198.956 0.222107 167.865 0.222107C126.823 0.222107 96.9749 26.7539 78.3198 60.333C65.8832 82.3045 57.1775 106.763 49.7152 130.808H10.7468C5.77211 132.881 1.62683 143.659 4.52872 152.365H43.4971L0.264221 297.948C35.6218 297.948 46.0958 303.882 55.7579 281.012C64.7913 252.447 68.9922 244.188 77.3168 214.793L77.3199 214.783C83.129 194.269 89.0128 173.492 95.3168 152.365Z" fill="black"/>
</svg>
